<?xml version="1.0" encoding="UTF-8" standalone="no"?>
<svg
   width="16"
   height="16"
   fill="currentColor"
   class="bi bi-bar-chart-line-fill"
   viewBox="0 0 16 16"
   version="1.1"
   id="svg883"
   xmlns="http://www.w3.org/2000/svg"
   xmlns:svg="http://www.w3.org/2000/svg">
  <defs
     id="defs887" />
  <rect
     style="fill:#000000;stroke:none;stroke-width:0;stroke-miterlimit:4;stroke-dasharray:none"
     id="rect1142"
     width="15.886933"
     height="15.921464"
     x="0.05990164"
     y="0.04474359" />
  <path
     d="m 10.785335,2.655242 a 0.94367107,0.94367107 0 0 1 0.943671,-0.943671 h 1.887342 a 0.94367107,0.94367107 0 0 1 0.943671,0.943671 v 11.324053 h 0.471836 a 0.47183553,0.47183553 0 0 1 0,0.943671 H 0.87678831 a 0.47183553,0.47183553 0 0 1 0,-0.943671 H 1.3486238 v -2.831013 a 0.94367107,0.94367107 0 0 1 0.9436711,-0.943671 h 1.8873422 a 0.94367107,0.94367107 0 0 1 0.943671,0.943671 v 2.831013 H 6.0669792 V 7.3735974 A 0.94367107,0.94367107 0 0 1 7.0106503,6.4299263 h 1.8873421 a 0.94367107,0.94367107 0 0 1 0.9436711,0.9436711 v 6.6056976 h 0.9436715 z"
     id="path881"
     style="stroke-width:0;fill:#ffcc00;stroke:#554400;stroke-miterlimit:4;stroke-dasharray:none" />
</svg>
